<?xml version="1.0" encoding="UTF-8"?>
<svg id="Layer_1" data-name="Layer 1" xmlns="http://www.w3.org/2000/svg" version="1.1" viewBox="0 0 740.5 116">
  <defs>
    <style>
      .cls-1 {
        fill: #2a286b;
        stroke-width: 0px;
      }
    </style>
  </defs>
  <path class="cls-1" d="M16,57.2c0-9,2.4-16.1,7.2-21.2,5-5.3,11.4-8,19.2-8s14.3,2.7,19.2,8c4.8,5.1,7.2,12.2,7.2,21.2s-2.4,16.1-7.2,21.2c-5,5.3-11.4,8-19.2,8s-14.3-2.7-19.2-8c-4.8-5.1-7.2-12.2-7.2-21.2ZM50.8,57.2c0-6.1-1.2-10.5-3.7-13.2-1.4-1.5-3-2.3-4.7-2.3s-3.4.8-4.7,2.3c-2.5,2.7-3.7,7.1-3.7,13.2s1.2,10.5,3.7,13.3c1.4,1.5,3,2.3,4.7,2.3s3.4-.8,4.7-2.3c2.5-2.7,3.7-7.2,3.7-13.3Z"/>
  <path class="cls-1" d="M77.8,29h36.7v13.7h-19.6v7.8h18.2v13.7h-18.2v21.5h-17.1V29.1h0Z"/>
  <path class="cls-1" d="M123.6,29h36.7v13.7h-19.6v7.8h18.2v13.7h-18.2v21.5h-17.1V29.1h0Z"/>
  <path class="cls-1" d="M169.4,29h17.1v56.6h-17.1V29Z"/>
  <path class="cls-1" d="M196.4,57.4c0-9.1,2.3-16.2,6.9-21.4,4.7-5.2,10.8-7.8,18.1-7.8s13.5,2.6,18.2,7.8c3.1,3.4,5.1,7.7,6.2,12.8l-15.1.7c-1.1-2.8-2.6-4.9-4.7-6.2-2-1.2-4-1.4-6.1-.8-2.1.7-3.9,2.3-5.3,4.7-1.5,2.7-2.3,6-2.4,10.2,0,3.8.7,7.1,2.1,9.7,1.4,2.3,3.1,3.9,5.3,4.6,2.1.7,4.2.5,6.2-.5,2.1-1.1,3.7-3.1,4.8-5.8l15.1.7c-1,5.1-3.1,9.4-6.2,12.8-4.7,5.2-10.8,7.8-18.2,7.8s-13.4-2.6-18.1-7.8c-4.6-5.1-6.9-12.2-6.9-21.4h.1Z"/>
  <path class="cls-1" d="M255.7,29h36.7v13.7h-19.6v7.8h18.9v13.7h-18.9v7.8h19.6v13.7h-36.7V29.1h0Z"/>
  <path class="cls-1" d="M350.2,42.9c-1.2-.8-2.4-1.1-3.6-1.1-1.8,0-3.2.4-4.4,1.1-1.1.7-1.7,1.8-1.7,3.3s.6,2.2,1.7,2.9c1,.6,3,1.1,6,1.6,9.2,1.4,15.1,3.5,17.9,6.5,2.9,3.1,4.1,7.1,3.7,11.9-.4,4.7-2.2,8.5-5.4,11.3-.9.8-1.8,1.5-2.9,2.2-4.3,2.7-9.2,4-14.9,4s-11.4-1.3-15.7-4c-5.5-3.4-8.2-8.1-8.3-14l16.6-.9c.3,1.8,1,3.2,2.2,4.2,1.2.9,2.9,1.3,5.2,1.3s3.2-.5,4.4-1.3,1.8-1.8,1.7-3.3c0-1.4-.8-2.4-2-3.1-1-.5-2.8-1-5.6-1.4-7.3-1.1-12.4-2.5-15.1-4.3-4.3-2.7-6.5-7.2-6.5-13.6s2.8-10.6,8.3-14c4.3-2.7,9.2-4,14.9-4s9.8,1.3,14.1,4c5.2,3.4,8,8.2,8.4,14.4l-15.2.5c-1.3-2-2.6-3.4-3.7-4.1h-.1Z"/>
  <path class="cls-1" d="M396,77.1l-2.8,8.5h-16.3l20.2-56.6h13.1l20.2,56.6h-16.2l-2.8-8.5h-15.5,0ZM399.2,67.1h9l-4.5-13.7-4.5,13.7Z"/>
  <path class="cls-1" d="M438.8,29h17.1v21.5h11.8v-21.5h17.1v56.6h-17.1v-21.5h-11.8v21.5h-17.1V29Z"/>
  <path class="cls-1" d="M512.2,77.1l-2.8,8.5h-16.3l20.2-56.6h13.1l20.2,56.6h-16.2l-2.8-8.5h-15.5,0ZM515.5,67.1h9l-4.5-13.7-4.5,13.7Z"/>
  <path class="cls-1" d="M562.9,29l9,19.7,9-19.7h18.9l-19.3,34.4v22.3h-17.1v-22.3l-19.3-34.4h18.9-.1Z"/>
  <path class="cls-1" d="M601.5,57.2c0-9,2.4-16.1,7.2-21.2,5-5.3,11.4-8,19.2-8s14.3,2.7,19.2,8c4.8,5.1,7.2,12.2,7.2,21.2s-2.4,16.1-7.2,21.2c-5,5.3-11.4,8-19.2,8s-14.3-2.7-19.2-8c-4.8-5.1-7.2-12.2-7.2-21.2ZM636.4,57.2c0-6.1-1.2-10.5-3.7-13.2-1.4-1.5-3-2.3-4.7-2.3s-3.4.8-4.7,2.3c-2.5,2.7-3.7,7.1-3.7,13.2s1.2,10.5,3.7,13.3c1.4,1.5,3,2.3,4.7,2.3s3.4-.8,4.7-2.3c2.5-2.7,3.7-7.2,3.7-13.3Z"/>
  <path class="cls-1" d="M687.6,51.3h25.5v6c0,9.1-2.4,16.1-6.9,21.2-4.8,5.3-11,8-18.5,8s-13.8-2.7-18.5-8c-4.6-5.1-6.9-12.2-6.9-21.2s2.3-16.1,6.9-21.2c4.1-4.6,9.4-7.2,16-7.8,6.5-.7,12.2.8,17.3,4.4,3.4,2.4,6.3,6.3,8.4,11.7l-16.2,4.2c-1.2-3-2.4-4.9-3.5-5.7-1.3-.9-2.7-1.2-4.3-1-1.5.2-2.8,1-3.9,2.2-1.3,1.5-2.3,3.9-3,7.1-.6,3.2-.8,6.4-.5,9.7.3,3.5,1.2,6.3,2.5,8.5,1.5,2.4,3.4,3.6,5.8,3.6s4.7-1.1,6.3-3.1c1.4-1.8,2.2-4,2.2-6.5h-8.6v-12.1h0Z"/>
  <path class="cls-1" d="M723.4,29h17.1v56.6h-17.1V29Z"/>
</svg>